<?xml version="1.0" standalone="no"?>
<!DOCTYPE svg PUBLIC "-//W3C//DTD SVG 20010904//EN"
 "http://www.w3.org/TR/2001/REC-SVG-20010904/DTD/svg10.dtd">
<svg version="1.0" xmlns="http://www.w3.org/2000/svg"
 width="500.000000pt" height="240.000000pt" viewBox="0 0 500.000000 240.000000"
 preserveAspectRatio="xMidYMid meet">

<g transform="translate(0.000000,240.000000) scale(0.100000,-0.100000)"
fill="#000000" stroke="none">
<path d="M1846 2265 c-23 -35 -21 -38 22 -31 33 6 74 -6 62 -17 -3 -3 -39 -7
-80 -10 -41 -3 -77 -6 -80 -6 -3 -1 6 -10 18 -21 18 -15 28 -17 42 -10 10 6
39 10 64 10 89 0 129 -45 56 -62 -56 -14 -81 -30 -75 -47 3 -9 -12 4 -35 28
-41 44 -42 44 -121 49 -50 3 -83 10 -90 18 -16 20 -49 18 -49 -3 0 -14 -2 -15
-9 -4 -7 11 -13 11 -32 -3 -30 -21 -46 -20 -66 3 -15 19 -41 18 -54 -2 -4 -5
-23 -4 -47 3 -45 12 -95 4 -89 -13 2 -6 14 -11 28 -12 38 0 34 -19 -6 -29 -52
-12 -37 -31 28 -34 43 -2 59 -8 67 -21 13 -25 4 -31 -46 -31 -41 0 -43 -1 -35
-22 14 -38 48 -48 158 -46 57 1 108 5 114 9 9 5 7 20 -5 55 -9 26 -14 49 -13
51 2 2 16 -20 31 -48 16 -29 38 -54 53 -60 27 -10 202 -13 227 -3 11 4 14 13
10 30 -8 32 5 30 32 -3 18 -23 30 -27 85 -30 89 -6 96 -9 74 -33 -17 -19 -18
-19 -46 2 -26 19 -36 21 -136 15 -59 -4 -111 -11 -116 -16 -5 -5 -7 -21 -3
-35 5 -19 13 -26 31 -26 14 0 25 -4 25 -9 0 -9 -79 -12 -94 -4 -4 3 -3 9 4 13
20 12 3 59 -25 72 -17 8 -56 8 -132 2 -100 -8 -108 -11 -111 -31 -2 -14 4 -26
18 -33 19 -10 20 -13 7 -23 -11 -8 -16 -36 -19 -87 l-3 -75 122 -3 c121 -3
122 -2 139 23 21 32 34 32 34 0 l0 -25 125 0 126 0 17 30 c9 16 20 30 25 30
13 0 7 -22 -14 -48 -16 -21 -32 -28 -72 -32 -46 -4 -52 -8 -55 -30 -2 -14 -8
-29 -14 -35 -7 -7 -8 -3 -3 13 11 37 -10 52 -75 52 -38 0 -60 -4 -63 -12 -4
-10 -7 -10 -18 0 -7 6 -38 12 -70 12 -37 0 -59 -4 -62 -12 -4 -10 -7 -10 -18
0 -7 7 -38 12 -71 12 -48 0 -58 -3 -58 -17 -1 -17 -1 -17 -14 0 -19 24 -121
24 -136 0 -10 -17 -10 -17 -20 0 -13 20 -109 24 -128 5 -9 -9 -15 -9 -24 0 -7
7 -20 12 -30 12 -10 0 -18 7 -18 16 0 13 7 15 38 9 41 -8 270 -7 283 1 5 3 18
25 29 51 22 49 26 98 10 108 -5 3 -10 17 -10 31 0 55 -75 82 -138 50 -15 -7
-53 -17 -86 -21 l-58 -7 7 -31 c8 -39 9 -42 7 -93 l-2 -40 -64 -13 c-36 -7
-70 -10 -77 -6 -6 4 -14 3 -18 -3 -9 -15 -56 -19 -53 -4 4 21 -24 25 -57 8
-24 -13 -35 -14 -50 -5 -21 14 -51 6 -51 -13 0 -8 12 -18 28 -24 24 -9 28 -16
30 -58 1 -26 -3 -56 -8 -67 -15 -27 14 -38 85 -29 33 4 84 3 113 -2 29 -5 57
-6 63 -3 5 4 16 1 24 -5 8 -7 26 -10 39 -8 36 7 43 -20 8 -28 -72 -15 -71 -29
4 -37 65 -7 90 -22 72 -44 -7 -9 -23 -13 -41 -10 -36 5 -46 -16 -22 -43 15
-17 31 -20 106 -20 48 0 90 -4 94 -9 3 -5 -5 -11 -17 -13 -13 -2 -27 -13 -33
-25 -13 -30 -23 -29 -37 2 -10 22 -17 25 -63 25 -28 0 -55 -3 -59 -7 -4 -5
-38 -12 -74 -18 l-67 -10 3 -37 c3 -45 -7 -52 -54 -39 -27 7 -55 6 -104 -4
-37 -8 -90 -12 -121 -9 -30 4 -92 -1 -140 -9 -47 -9 -104 -13 -126 -10 -25 3
-43 1 -47 -6 -5 -7 -43 -11 -102 -11 -77 0 -94 -3 -94 -15 0 -18 -10 -17 172
-19 81 -1 150 -5 154 -9 4 -4 0 -7 -9 -7 -19 0 -47 -27 -47 -46 0 -8 6 -14 14
-14 8 0 16 -10 18 -22 4 -27 44 -36 78 -18 26 14 17 30 -16 30 -34 0 -26 24 9
28 32 4 36 27 7 35 -11 3 -20 11 -20 17 0 7 7 10 16 6 9 -3 52 -6 97 -6 61 0
78 -3 70 -11 -13 -13 -60 -16 -83 -6 -8 4 -21 3 -28 -1 -21 -14 -2 -40 36 -49
25 -6 38 -15 41 -28 2 -11 8 -23 15 -27 6 -5 2 -8 -11 -8 -16 0 -27 -10 -37
-32 -7 -18 -10 -37 -6 -41 9 -10 100 10 120 27 32 27 43 30 31 8 -16 -30 -16
-29 39 -37 45 -6 54 -4 85 20 l35 26 0 -25 c0 -25 3 -26 55 -26 40 0 60 5 73
18 18 18 19 18 28 -2 12 -27 85 -34 119 -12 21 14 24 14 29 0 5 -13 17 -15 64
-10 71 7 76 7 138 0 38 -4 55 -2 66 10 14 14 18 14 28 1 20 -24 105 -20 128 6
l19 20 5 -25 c6 -29 -10 -36 -89 -36 -56 0 -77 -15 -48 -36 14 -10 15 -17 7
-27 -7 -8 -9 -17 -6 -20 4 -3 4 -14 0 -23 -5 -13 -9 -14 -21 -4 -9 8 -29 10
-49 7 -19 -3 -37 -2 -41 1 -3 4 -25 12 -47 17 -54 14 -62 35 -13 35 20 0 45
-5 56 -10 15 -8 19 -7 19 5 0 22 17 18 23 -5 3 -11 12 -20 21 -20 24 0 20 46
-5 71 -20 20 -28 21 -133 14 -61 -4 -114 -9 -118 -12 -16 -9 -7 -31 14 -36 21
-6 21 -7 4 -26 -19 -21 -16 -51 6 -51 8 -1 6 -6 -5 -14 -12 -10 -19 -31 -22
-67 -4 -58 -14 -68 -49 -49 -28 14 -92 10 -89 -7 1 -6 -12 -14 -30 -18 -54
-11 -67 -16 -67 -26 0 -13 78 -11 185 6 87 14 163 11 182 -8 8 -9 -8 -28 -18
-22 -5 4 -18 4 -29 0 -22 -7 -17 -28 13 -58 17 -17 23 -18 63 -7 54 15 168 6
202 -16 20 -13 29 -14 53 -3 19 7 29 18 27 28 -4 17 -81 30 -158 26 l-42 -2
26 26 c23 22 34 26 87 24 51 -1 60 1 57 15 -2 12 -17 18 -53 22 -87 9 -34 19
118 22 106 2 150 -1 159 -10 9 -9 -5 -12 -73 -12 -56 0 -92 -5 -104 -13 -33
-25 -9 -36 63 -30 55 5 70 3 81 -11 22 -26 1 -40 -41 -28 -44 12 -98 -8 -98
-36 0 -23 18 -32 68 -32 l37 -1 -24 -20 -24 -20 21 -22 22 -22 25 28 c26 27
45 35 45 18 0 -5 -7 -14 -15 -21 -40 -33 -2 -58 50 -33 33 16 36 16 63 -4 36
-26 72 -35 157 -39 39 -2 85 -6 102 -10 18 -3 41 -3 50 1 10 4 31 9 47 10 16
2 31 7 35 11 7 10 68 54 74 54 3 0 4 -8 3 -17 -1 -15 9 -19 58 -21 40 -2 67
-9 84 -23 14 -10 31 -19 38 -19 24 0 15 -17 -15 -30 -22 -9 -34 -9 -50 0 -17
8 -42 7 -107 -5 -47 -9 -94 -13 -104 -10 -10 3 -47 1 -82 -6 -34 -6 -85 -13
-113 -15 -27 -2 -75 -5 -105 -7 -30 -2 -143 -5 -250 -6 -174 -1 -193 -3 -176
-16 11 -8 40 -15 65 -15 25 0 64 -7 86 -15 54 -19 223 -20 251 -1 22 16 91 19
100 5 3 -5 10 -6 16 -3 6 4 8 -1 3 -16 -6 -20 -5 -21 14 -11 12 7 21 17 21 24
0 9 26 11 100 9 86 -3 100 -2 100 12 0 19 40 22 57 5 7 -7 17 -8 29 -1 11 5
49 13 85 17 59 6 67 5 73 -11 7 -18 8 -18 21 -1 11 15 13 16 19 2 6 -17 86
-22 86 -4 0 7 48 8 148 5 81 -3 163 -5 182 -6 19 0 62 -1 95 -1 33 -1 76 -1
95 -2 19 0 46 4 59 8 21 7 23 6 16 -14 -5 -17 -2 -21 18 -21 14 0 39 -3 56 -6
37 -8 40 5 10 48 -18 25 -19 32 -8 39 8 5 19 9 24 9 6 0 4 -4 -4 -9 -11 -7 -9
-13 9 -31 16 -16 25 -19 33 -11 6 6 19 11 29 11 10 0 18 7 18 16 0 13 10 14
68 9 55 -6 79 -3 137 16 82 27 205 33 213 10 3 -10 -2 -12 -21 -7 -14 3 -28 2
-31 -3 -3 -4 -18 -6 -33 -3 -27 5 -27 5 -11 -19 14 -21 22 -24 72 -21 36 3 62
-1 72 -9 19 -15 27 -7 49 53 9 26 23 49 30 52 7 2 34 33 61 68 26 35 65 78 85
96 46 40 56 79 34 127 -17 34 -16 37 4 85 19 43 20 54 9 93 -10 40 -9 51 10
97 25 60 28 90 10 109 -11 10 -4 21 34 55 34 32 44 46 36 54 -9 9 -8 18 0 37
6 13 9 31 6 39 -4 11 1 15 23 13 39 -3 44 33 9 57 -39 25 -33 40 14 33 29 -4
40 -1 40 8 0 7 -7 15 -15 19 -8 3 -15 12 -15 19 0 8 -6 20 -14 26 -8 7 -12 21
-9 31 3 11 1 26 -5 33 -20 24 -24 58 -10 75 8 9 20 36 28 60 11 35 11 46 0 67
-12 23 -11 28 11 51 13 14 34 30 47 35 19 7 21 12 12 29 -6 12 -8 31 -4 43 5
12 7 28 5 35 -1 9 5 11 22 7 14 -4 28 -2 32 5 12 19 -4 57 -25 63 -11 3 -20
12 -20 20 0 12 8 14 35 10 19 -3 42 -2 52 2 16 7 15 9 -7 14 -15 4 -26 15 -28
28 -2 12 -12 25 -24 29 -14 4 -17 9 -9 17 16 16 14 37 -4 37 -9 0 -12 6 -9 15
10 26 -34 17 -52 -10 -10 -15 -26 -25 -40 -25 -29 0 -32 16 -4 25 28 9 25 40
-6 54 -27 12 -27 18 -9 79 6 18 4 22 -14 22 -16 0 -27 -12 -42 -47 -20 -46
-21 -47 -35 -28 -11 14 -13 32 -9 63 7 46 5 47 -61 43 -17 -1 -69 8 -115 20
-91 23 -95 23 -182 13 -51 -6 -63 -4 -87 15 -34 24 -77 27 -99 6 -70 -65 -70
-65 -157 -65 -46 0 -94 -5 -108 -11 -20 -9 -32 -8 -59 4 -27 13 -53 15 -136
10 -56 -3 -104 -10 -107 -15 -3 -5 2 -18 12 -29 30 -33 6 -34 -29 -1 -17 17
-44 35 -58 41 -31 11 -227 2 -235 -11 -4 -5 6 -23 22 -39 40 -42 21 -36 -35
11 -57 48 -89 55 -205 45 -64 -5 -86 -10 -86 -21 0 -10 14 -14 56 -14 34 0 53
-4 49 -10 -3 -5 -16 -10 -29 -10 -12 0 -27 -5 -34 -12 -9 -9 -19 -5 -44 19
-52 49 -69 53 -185 52 -129 -2 -205 8 -216 28 -6 9 -25 14 -55 14 -26 -1 -72
-1 -102 0 -30 0 -74 -3 -98 -7 -36 -6 -48 -3 -72 15 -40 29 -83 28 -104 -4z
m508 -89 c91 -44 143 -121 117 -170 -19 -35 -51 -50 -126 -57 -63 -6 -72 -4
-91 15 -12 11 -33 32 -48 45 -14 13 -26 27 -26 33 0 5 20 18 45 29 36 16 45
25 45 44 0 35 19 31 27 -5 5 -25 10 -30 35 -30 40 0 68 -17 68 -40 0 -14 -7
-20 -21 -20 -11 0 -18 4 -15 9 7 10 -17 21 -45 21 -15 0 -19 -7 -19 -35 0 -34
1 -35 40 -35 116 0 132 87 26 152 -62 39 -179 68 -191 47 -8 -12 -45 -12 -45
1 0 39 140 37 224 -4z m1544 6 c2 -7 -2 -10 -12 -6 -9 3 -16 11 -16 16 0 13
23 5 28 -10z m452 8 c0 -5 -4 -10 -10 -10 -5 0 -10 5 -10 10 0 6 5 10 10 10 6
0 10 -4 10 -10z m-1781 -24 c18 -21 -3 -54 -37 -62 -15 -3 -33 -8 -41 -10 -30
-10 -42 44 -15 70 19 20 78 21 93 2z m1664 -16 c15 -16 24 -30 20 -30 -10 1
-63 47 -63 55 0 13 19 2 43 -25z m-2673 -53 c0 -5 -6 -7 -12 -4 -7 2 -21 0
-30 -4 -24 -13 -34 9 -12 25 14 10 22 11 36 2 10 -6 18 -15 18 -19z m2100 23
c0 -5 -4 -10 -9 -10 -6 0 -13 5 -16 10 -3 6 1 10 9 10 9 0 16 -4 16 -10z
m-1897 -7 c-7 -2 -19 -2 -25 0 -7 3 -2 5 12 5 14 0 19 -2 13 -5z m988 -82 c0
-25 0 -25 9 -3 5 12 7 29 3 38 -5 13 2 15 43 12 54 -3 65 -20 18 -28 -29 -6
-29 -6 -4 -13 27 -7 20 -22 -15 -30 -15 -4 -13 -5 8 -6 32 -1 35 -16 8 -31
-29 -15 -59 -12 -70 8 -6 9 -11 11 -11 5 0 -21 -28 -15 -41 9 -11 21 -12 21
-23 -8 -11 -26 -13 -27 -23 -10 -7 12 -13 15 -17 7 -10 -16 -81 -14 -96 4 -7
8 -10 21 -7 30 4 8 2 17 -3 20 -5 3 -10 -12 -12 -32 -2 -21 -7 -37 -13 -36
-13 3 -19 113 -6 113 5 0 11 -5 13 -11 3 -9 9 -9 25 0 27 14 113 15 113 1 0
-5 -13 -10 -30 -10 -16 0 -30 -4 -30 -10 0 -5 8 -10 18 -10 10 0 23 -5 29 -11
7 -7 12 -3 17 15 8 34 27 33 49 -1 l17 -28 -6 45 -5 45 20 -24 c12 -13 21 -35
22 -50z m138 17 l-12 -23 26 23 c33 31 61 26 65 -11 4 -34 -12 -56 -55 -74
-27 -11 -34 -20 -39 -53 -8 -47 -17 -56 -34 -35 -10 12 -10 25 -1 59 6 25 11
55 11 68 0 27 41 98 47 81 2 -7 -1 -22 -8 -35z m1643 -90 c-7 -7 -12 -8 -12
-2 0 14 12 26 19 19 2 -3 -1 -11 -7 -17z m-1408 -29 c2 -2 -11 -67 -30 -144
-18 -77 -33 -152 -34 -167 0 -15 -4 -29 -9 -32 -5 -4 -12 -29 -16 -56 -4 -30
-13 -54 -23 -60 -10 -5 -12 -10 -5 -10 14 0 11 -24 -26 -200 l-26 -125 -103 1
c-56 1 -105 4 -108 7 -6 5 26 172 90 482 19 89 48 210 72 302 2 8 33 11 108 9
58 -1 107 -4 110 -7z m-329 -30 c4 -5 0 -18 -8 -27 -7 -9 -51 -85 -96 -169
-79 -148 -81 -153 -72 -195 6 -24 29 -121 51 -216 23 -96 39 -179 37 -186 -6
-15 -232 -23 -241 -8 -3 4 -10 37 -16 73 -7 35 -16 87 -21 114 -24 124 -27
159 -12 173 10 11 11 18 3 26 -16 16 -30 -12 -28 -59 1 -22 -2 -68 -6 -102 -6
-45 -5 -63 3 -63 6 0 11 -4 11 -10 0 -5 -10 -10 -22 -10 -33 0 -43 -11 -46
-48 -2 -22 1 -32 10 -30 16 4 23 -36 10 -58 -7 -13 -31 -17 -116 -21 l-107 -5
6 39 c41 272 50 353 41 372 -7 15 -5 26 7 39 8 9 20 51 26 92 6 41 15 91 21
110 5 19 10 57 10 85 0 27 4 55 8 61 4 6 54 14 115 17 l107 6 0 -34 c0 -19 -4
-56 -9 -82 -17 -87 -22 -138 -13 -128 5 6 24 48 43 95 60 152 51 144 176 151
60 3 111 6 115 7 4 1 10 -3 13 -9z m663 -29 l101 0 46 -57 c37 -45 45 -61 40
-82 -4 -14 -11 -50 -17 -81 -16 -86 -16 -86 -116 -93 -49 -4 -97 -10 -107 -13
-16 -7 -18 -3 -12 42 4 27 9 59 13 70 5 17 0 22 -23 27 -15 3 -31 2 -34 -1 -5
-6 -65 -276 -85 -384 -3 -15 -6 -31 -7 -35 -1 -5 13 -9 30 -10 30 -1 34 2 42
35 5 21 12 56 16 79 6 38 10 43 38 48 74 13 188 21 193 13 3 -4 0 -25 -6 -45
-6 -21 -19 -77 -28 -125 l-18 -87 -67 -53 -68 -54 -107 1 c-197 4 -176 -2
-222 64 l-40 60 14 68 c43 210 65 311 74 338 6 17 15 62 22 102 11 70 12 72
72 123 34 28 74 54 90 57 16 3 31 10 35 16 4 6 11 4 18 -6 10 -14 31 -17 113
-17z m442 20 c41 0 81 -4 88 -9 11 -6 7 -28 -18 -109 -17 -56 -30 -109 -28
-118 2 -9 30 29 67 90 36 59 69 110 75 114 16 9 176 10 182 0 3 -4 16 -8 30
-8 32 0 32 -29 -2 -61 -14 -13 -46 -53 -72 -89 -25 -36 -66 -89 -90 -118 l-45
-53 12 -82 c7 -45 17 -120 21 -167 5 -47 12 -116 16 -154 l7 -69 -99 6 c-54 4
-109 10 -121 13 -25 7 -31 32 -43 192 -9 121 -15 143 -25 96 -12 -55 -57 -219
-67 -246 l-10 -27 -102 6 c-55 3 -105 9 -110 13 -4 5 0 32 9 60 13 38 14 54 6
59 -8 5 -8 16 -2 37 5 16 12 41 15 57 4 15 15 36 26 47 11 11 29 55 39 98 16
63 101 372 117 421 3 8 12 11 27 7 12 -3 56 -6 97 -6z m-2205 -30 c3 -5 1 -10
-4 -10 -6 0 -11 5 -11 10 0 6 2 10 4 10 3 0 8 -4 11 -10z m-57 -107 c-10 -2
-28 -2 -40 0 -13 2 -5 4 17 4 22 1 32 -1 23 -4z m-268 -13 c0 -5 -12 -10 -26
-10 -14 0 -23 4 -19 10 3 6 15 10 26 10 10 0 19 -4 19 -10z m-295 -60 c-3 -5
-10 -10 -16 -10 -5 0 -9 5 -9 10 0 6 7 10 16 10 8 0 12 -4 9 -10z m1010 -20
c-3 -5 -11 -10 -16 -10 -6 0 -7 5 -4 10 3 6 11 10 16 10 6 0 7 -4 4 -10z
m-1055 -30 c0 -5 -4 -10 -10 -10 -5 0 -10 5 -10 10 0 6 5 10 10 10 6 0 10 -4
10 -10z m310 -46 c0 -28 -32 -64 -57 -64 -13 1 -10 5 9 16 29 15 45 54 32 75
-4 8 -3 9 4 5 7 -4 12 -18 12 -32z m488 -64 c28 0 41 -4 36 -11 -3 -6 -15 -8
-27 -5 -25 6 -57 -10 -57 -29 0 -8 -3 -15 -6 -15 -7 0 -57 51 -52 54 2 0 12 6
23 12 12 7 24 8 30 3 5 -5 29 -9 53 -9z m-388 -60 c0 -4 -46 -5 -67 -1 -3 0 2
10 12 21 10 11 13 20 7 20 -7 0 -12 5 -12 12 0 10 59 -41 60 -52z m250 50 c0
-5 -9 -10 -20 -10 -11 0 -20 5 -20 10 0 6 9 10 20 10 11 0 20 -4 20 -10z
m-357 -17 c-13 -2 -33 -2 -45 0 -13 2 -3 4 22 4 25 0 35 -2 23 -4z m162 -124
c8 -24 -12 -69 -31 -69 -16 0 -16 2 1 20 16 18 16 22 1 67 l-16 48 20 -25 c11
-14 22 -32 25 -41z m292 -41 c-3 -7 -5 -2 -5 12 0 14 2 19 5 13 2 -7 2 -19 0
-25z m294 -21 c-8 -8 -11 -5 -11 9 0 27 14 41 18 19 2 -9 -1 -22 -7 -28z
m-421 -11 c0 -3 -4 -8 -10 -11 -5 -3 -10 -1 -10 4 0 6 5 11 10 11 6 0 10 -2
10 -4z m-294 -175 c-7 -82 -9 -81 110 -81 46 0 84 -4 84 -9 0 -12 -62 -20 -81
-10 -21 11 -119 -1 -119 -14 0 -6 -8 -3 -19 7 -14 13 -29 15 -75 10 -48 -6
-56 -10 -56 -28 -1 -21 -1 -21 -12 -1 -6 11 -16 23 -22 28 -14 9 -109 -2 -117
-15 -3 -5 -12 -2 -19 7 -7 8 -21 15 -32 15 -11 0 -18 5 -15 13 2 6 13 11 23 9
44 -8 255 -14 277 -9 25 7 67 85 67 125 0 12 3 22 6 22 4 0 4 -31 0 -69z
m-296 -5 c0 -23 -4 -24 -80 -31 -44 -4 -80 -11 -80 -17 0 -5 -12 -8 -26 -6
-18 2 -30 13 -39 36 -13 30 -13 32 8 32 12 0 28 -4 36 -9 7 -5 32 -3 60 4 25
7 63 14 84 14 33 1 37 -2 37 -23z m174 -5 c3 -5 -1 -12 -10 -15 -20 -8 -29 -1
-19 13 8 13 22 14 29 2z m264 2 c-10 -2 -26 -2 -35 0 -10 3 -2 5 17 5 19 0 27
-2 18 -5z m442 -35 c-1 -30 -50 -67 -50 -38 0 6 4 10 9 10 5 0 13 9 16 20 7
22 25 27 25 8z m-995 -38 c-3 -5 -10 -10 -16 -10 -5 0 -9 5 -9 10 0 6 7 10 16
10 8 0 12 -4 9 -10z m682 -17 c-8 -7 -37 9 -31 19 3 5 12 4 20 -3 8 -6 13 -14
11 -16z m203 7 c0 -5 -6 -10 -14 -10 -8 0 -17 -6 -19 -12 -4 -10 -8 -10 -16 2
-5 8 -7 18 -5 22 7 12 54 10 54 -2z m124 -5 c-6 -16 -24 -21 -24 -7 0 11 11
22 21 22 5 0 6 -7 3 -15z m-1059 -25 c3 -5 1 -10 -4 -10 -6 0 -11 5 -11 10 0
6 2 10 4 10 3 0 8 -4 11 -10z m1384 -24 c20 -21 21 -27 11 -71 -6 -27 -20 -55
-33 -65 l-22 -18 22 -18 c21 -17 21 -23 12 -67 -8 -35 -19 -54 -43 -72 -29
-22 -43 -25 -119 -25 -48 0 -87 1 -87 3 0 1 14 79 30 172 16 94 30 173 30 178
0 4 40 7 88 7 80 0 91 -2 111 -24z m147 -8 c-4 -18 -14 -69 -21 -113 -8 -44
-17 -92 -21 -107 -5 -23 -2 -28 14 -28 22 0 25 12 52 170 21 120 15 110 70
110 47 0 50 -1 45 -22 -3 -13 -16 -81 -29 -153 -22 -122 -25 -131 -57 -157
-28 -23 -43 -28 -90 -28 -46 0 -61 4 -83 25 -26 24 -26 27 -17 82 27 153 41
239 41 246 0 4 23 7 51 7 l52 0 -7 -32z m364 23 c0 -5 -3 -23 -6 -40 -5 -26
-11 -31 -34 -31 -32 0 -29 7 -55 -150 -23 -137 -19 -130 -74 -130 l-48 0 24
128 c28 158 28 152 -3 152 -20 0 -25 4 -20 16 3 9 6 27 6 40 0 24 1 24 105 24
58 0 105 -4 105 -9z m220 0 c0 -5 -3 -23 -6 -40 -5 -26 -11 -31 -35 -31 -31 0
-27 13 -57 -170 l-18 -105 -47 -3 c-56 -4 -55 -10 -27 144 25 137 25 134 -6
134 -20 0 -25 4 -20 16 3 9 6 27 6 40 0 24 1 24 105 24 58 0 105 -4 105 -9z
m213 -19 l27 -28 -23 -126 c-21 -123 -23 -128 -57 -153 -27 -20 -46 -25 -90
-25 -48 0 -60 4 -82 28 l-27 27 15 80 c28 156 34 174 68 200 24 20 43 25 87
25 47 0 59 -4 82 -28z m130 -57 c-3 -47 -3 -85 0 -85 3 0 18 38 33 85 l28 85
39 0 39 0 -3 -79 c-2 -44 -1 -77 2 -75 3 2 16 37 28 79 l23 75 49 0 49 0 -16
-40 c-9 -22 -39 -102 -68 -177 l-52 -138 -42 -3 -42 -3 -1 78 c0 84 -2 83 -40
-19 l-20 -58 -45 0 -44 0 0 128 c0 70 -3 151 -6 180 l-7 52 51 0 51 0 -6 -85z
m478 64 c20 -14 29 -29 29 -47 0 -40 -11 -50 -58 -58 -40 -6 -42 -6 -42 20 0
20 -5 26 -21 26 -16 0 -20 -5 -17 -27 2 -20 18 -37 59 -66 l56 -38 -9 -47
c-15 -71 -55 -101 -134 -102 -51 0 -64 4 -83 24 -19 20 -22 31 -17 60 4 20 12
36 19 36 7 0 30 3 51 7 38 6 39 6 32 -20 -5 -23 -3 -27 14 -27 15 0 20 7 20
25 0 18 -14 35 -55 65 -58 43 -58 43 -48 103 12 77 134 116 204 66z m155 -11
c-24 -113 -19 -116 35 -20 29 52 29 52 80 52 38 0 48 -3 42 -13 -4 -7 -30 -45
-57 -84 l-48 -72 22 -68 c12 -37 25 -80 30 -95 l9 -28 -53 0 -54 0 -17 72
c-20 79 -27 75 -40 -19 l-7 -53 -50 0 c-47 0 -50 1 -45 23 3 12 8 40 12 62 3
22 12 76 20 120 8 44 17 97 20 118 l6 37 51 0 51 0 -7 -32z m280 10 c-3 -13
-18 -94 -33 -180 l-27 -158 -49 0 -48 0 5 33 c3 17 10 61 16 97 6 36 15 85 20
110 5 25 12 62 15 83 l6 37 51 0 c47 0 50 -1 44 -22z m-2783 -25 c-7 -2 -19
-2 -25 0 -7 3 -2 5 12 5 14 0 19 -2 13 -5z m470 -98 c-4 -15 -36 -12 -41 3 -3
9 3 13 19 10 13 -1 23 -7 22 -13z m-5 -44 c1 -1 7 -13 12 -27 14 -36 2 -124
-17 -124 -14 0 -11 25 6 58 10 17 -10 80 -26 87 -7 2 -13 -2 -13 -10 0 -16
-16 -20 -24 -7 -3 4 -29 7 -58 7 -58 -2 -71 1 -62 16 4 8 147 7 182 0z m-218
-20 c0 -17 -18 -21 -24 -6 -3 9 0 15 9 15 8 0 15 -4 15 -9z m-70 -91 c0 -5 -4
-10 -10 -10 -5 0 -10 5 -10 10 0 6 5 10 10 10 6 0 10 -4 10 -10z m-130 -40 c0
-5 -4 -10 -10 -10 -5 0 -10 5 -10 10 0 6 5 10 10 10 6 0 10 -4 10 -10z m180 0
c0 -5 -4 -10 -10 -10 -5 0 -10 5 -10 10 0 6 5 10 10 10 6 0 10 -4 10 -10z
m-82 -52 c-5 -15 -68 -24 -68 -9 0 9 21 16 58 20 8 0 12 -5 10 -11z m668 -57
c4 -20 14 -31 30 -35 25 -7 41 -44 30 -71 -7 -18 -50 -20 -64 -2 -16 19 -27
137 -13 137 6 0 14 -13 17 -29z m354 5 c0 -18 7 -25 30 -29 54 -11 50 -87 -4
-87 -12 0 -27 5 -34 12 -14 14 -16 128 -2 128 6 0 10 -11 10 -24z m1544 7 c3
-10 5 -48 4 -85 0 -51 -4 -68 -14 -68 -11 0 -14 19 -14 85 0 78 11 110 24 68z
m-950 -5 c3 -7 7 -41 10 -74 l5 -61 -49 -2 c-54 -1 -65 8 -56 45 5 17 16 26
36 31 26 5 30 10 30 39 0 33 17 47 24 22z m513 -71 c5 -58 4 -67 -11 -67 -9 0
-16 4 -16 9 0 5 -18 7 -40 4 -31 -4 -41 -2 -46 11 -9 22 21 64 51 72 15 4 25
13 25 23 0 10 3 21 7 25 14 13 24 -12 30 -77z m343 58 c0 -8 -7 -15 -15 -15
-16 0 -20 12 -8 23 11 12 23 8 23 -8z m-1990 -5 c0 -6 -6 -12 -12 -14 -53 -16
-54 -18 -22 -32 42 -18 51 -44 24 -66 -24 -19 -70 -24 -70 -8 0 6 11 15 25 20
33 13 32 17 -10 34 -40 17 -45 38 -13 60 25 18 78 21 78 6z m1375 -9 c3 -6 -4
-15 -15 -21 -14 -8 -20 -21 -20 -46 0 -24 -4 -34 -12 -32 -17 6 -22 62 -8 88
11 21 44 27 55 11z m-1009 -26 c4 -16 0 -34 -10 -50 -18 -27 -35 -32 -54 -13
-14 14 -16 78 -2 78 6 0 10 -9 10 -19 0 -11 5 -23 10 -26 10 -6 14 6 11 38 -3
27 28 20 35 -8z m114 11 c0 -7 -8 -16 -19 -19 -12 -3 -21 -17 -25 -41 -10 -52
-30 -40 -34 19 -3 40 -1 47 12 42 9 -4 16 -2 16 3 0 6 11 10 25 10 15 0 25 -6
25 -14z m350 -3 c0 -15 1 -15 19 1 31 28 51 11 51 -46 0 -58 -22 -63 -30 -7
l-6 34 -13 -37 c-20 -58 -41 -49 -41 17 0 30 5 55 10 55 6 0 10 -7 10 -17z
m657 1 c3 -9 1 -25 -6 -35 -9 -15 -8 -19 4 -19 8 0 15 -4 15 -8 0 -16 -25 -32
-50 -32 -48 0 -65 44 -34 88 18 26 62 30 71 6z m274 5 c14 -7 19 -19 18 -37
-2 -15 0 -33 4 -39 5 -9 -1 -17 -17 -25 -61 -27 -103 40 -56 90 24 25 25 26
51 11z m139 -41 c0 -36 -9 -58 -25 -58 -17 0 -65 57 -65 76 0 24 26 15 40 -13
l14 -28 3 25 c2 14 6 32 9 40 4 13 6 13 14 0 6 -8 10 -27 10 -42z m-1830 10
l13 -33 4 33 c5 42 27 37 31 -8 4 -34 -9 -50 -40 -50 -19 0 -31 19 -42 63 -9
39 16 35 34 -5z m668 -15 c23 -42 23 -43 4 -43 -11 0 -22 5 -24 11 -3 9 -10 8
-25 -1 -44 -28 -69 12 -37 58 24 34 54 25 82 -25z m525 2 c9 -20 17 -40 17
-45 0 -16 -30 -11 -36 5 -5 11 -11 12 -24 5 -27 -15 -38 -12 -45 10 -10 30 12
60 43 60 22 0 32 -7 45 -35z m727 -21 c0 -40 -2 -45 -15 -34 -8 7 -15 28 -15
46 0 24 5 34 15 34 11 0 15 -12 15 -46z m-1820 -73 c0 -5 -7 -11 -15 -15 -8
-3 -15 -12 -15 -21 0 -8 -6 -15 -14 -15 -27 0 -27 18 0 39 28 22 44 27 44 12z
m87 -17 c-3 -3 -12 -4 -19 -1 -8 3 -5 6 6 6 11 1 17 -2 13 -5z m799 -28 c18
-14 18 -15 -11 -21 -17 -4 -37 -9 -47 -11 -26 -7 -30 13 -6 30 28 20 39 20 64
2z m-182 -12 c30 -12 16 -31 -26 -38 -24 -4 -54 -14 -67 -23 -20 -12 -25 -13
-32 -2 -8 12 -10 12 -18 0 -5 -8 -16 -11 -31 -6 -15 5 -19 10 -11 14 6 4 9 15
6 23 -5 13 4 16 59 14 40 0 70 4 77 12 15 14 21 15 43 6z m306 -4 c0 -5 -7
-10 -15 -10 -8 0 -15 5 -15 10 0 6 7 10 15 10 8 0 15 -4 15 -10z m71 -11 c22
-11 17 -29 -8 -29 -9 0 -13 3 -10 7 4 3 -1 12 -11 19 -21 16 0 19 29 3z m-104
-44 c20 -8 33 -18 29 -22 -11 -11 -140 -12 -153 -1 -7 6 -24 7 -37 4 -26 -6
-56 1 -56 14 0 9 46 15 133 18 26 1 64 -5 84 -13z m73 1 c0 -2 -7 -6 -15 -10
-8 -3 -15 -1 -15 4 0 6 7 10 15 10 8 0 15 -2 15 -4z m48 -37 c-2 -6 -8 -10
-13 -10 -5 0 -11 4 -13 10 -2 6 4 11 13 11 9 0 15 -5 13 -11z m-935 -26 c-7
-2 -21 -2 -30 0 -10 3 -4 5 12 5 17 0 24 -2 18 -5z"/>
<path d="M2211 2041 c-10 -7 -8 -12 10 -25 32 -22 39 -20 39 9 0 26 -22 33
-49 16z"/>
<path d="M2520 2135 c-16 -19 0 -19 26 0 16 12 16 14 3 15 -9 0 -22 -7 -29
-15z"/>
<path d="M2925 2020 c-10 -11 -13 -20 -7 -20 6 0 16 9 22 20 6 11 9 20 7 20
-2 0 -12 -9 -22 -20z"/>
<path d="M3173 1665 c-21 -20 -33 -41 -32 -56 1 -17 3 -19 6 -6 2 9 11 17 19
17 8 0 12 5 9 10 -3 6 -3 10 2 10 7 0 36 51 30 55 -1 1 -17 -12 -34 -30z"/>
<path d="M2177 913 c-4 -3 -7 -19 -7 -35 0 -43 34 -34 38 10 3 31 -13 44 -31
25z"/>
<path d="M2157 783 c-2 -5 -7 -20 -11 -35 -5 -23 -3 -28 13 -28 17 0 31 24 31
58 0 13 -26 17 -33 5z"/>
<path d="M3120 918 c-1 -2 -9 -47 -19 -101 l-18 -98 21 3 c17 3 22 15 33 78 7
41 15 85 18 98 4 17 1 22 -15 22 -11 0 -20 -1 -20 -2z"/>
<path d="M2320 476 c0 -9 5 -16 10 -16 6 0 10 4 10 9 0 6 -4 13 -10 16 -5 3
-10 -1 -10 -9z"/>
<path d="M2670 485 c0 -8 7 -15 15 -15 8 0 15 7 15 15 0 8 -7 15 -15 15 -8 0
-15 -7 -15 -15z"/>
<path d="M3197 463 c-14 -13 -6 -20 18 -15 14 2 25 8 25 13 0 10 -34 12 -43 2z"/>
<path d="M3695 479 c-10 -14 -1 -21 19 -13 9 3 13 10 10 15 -7 12 -21 11 -29
-2z"/>
<path d="M3558 453 c7 -3 16 -2 19 1 4 3 -2 6 -13 5 -11 0 -14 -3 -6 -6z"/>
<path d="M3850 484 c0 -8 5 -12 10 -9 6 3 10 10 10 16 0 5 -4 9 -10 9 -5 0
-10 -7 -10 -16z"/>
<path d="M3848 443 c6 -2 18 -2 25 0 6 3 1 5 -13 5 -14 0 -19 -2 -12 -5z"/>
<path d="M2797 483 c-4 -3 -7 -11 -7 -17 0 -6 5 -5 12 2 6 6 9 14 7 17 -3 3
-9 2 -12 -2z"/>
<path d="M1257 2213 c-15 -14 -6 -23 22 -23 37 0 49 16 18 24 -28 7 -32 7 -40
-1z"/>
<path d="M1480 2181 c0 -5 7 -11 15 -15 9 -3 15 0 15 9 0 8 -7 15 -15 15 -8 0
-15 -4 -15 -9z"/>
<path d="M1695 2181 c-7 -12 31 -25 45 -16 6 4 8 11 5 16 -8 12 -42 12 -50 0z"/>
<path d="M526 2081 c-15 -23 60 -27 114 -6 35 13 34 13 -37 14 -39 1 -74 -3
-77 -8z"/>
<path d="M840 2050 c0 -5 7 -10 15 -10 8 0 15 5 15 10 0 6 -7 10 -15 10 -8 0
-15 -4 -15 -10z"/>
<path d="M1093 2023 c-32 -12 -8 -23 51 -23 70 0 99 7 90 21 -5 9 -120 11
-141 2z"/>
<path d="M713 2003 c-25 -9 -12 -23 21 -23 47 0 72 10 54 21 -14 9 -55 11 -75
2z"/>
<path d="M950 2000 c0 -13 20 -13 40 0 12 8 9 10 -12 10 -16 0 -28 -4 -28 -10z"/>
<path d="M553 1993 c-73 -7 -49 -24 30 -21 39 2 72 8 72 13 0 11 -38 14 -102
8z"/>
<path d="M1020 1860 c0 -5 5 -10 10 -10 6 0 10 5 10 10 0 6 -4 10 -10 10 -5 0
-10 -4 -10 -10z"/>
<path d="M1060 1860 c0 -5 9 -10 20 -10 11 0 20 5 20 10 0 6 -9 10 -20 10 -11
0 -20 -4 -20 -10z"/>
<path d="M1113 1858 c2 -7 14 -13 27 -13 13 0 25 6 28 13 2 8 -7 12 -28 12
-21 0 -30 -4 -27 -12z"/>
<path d="M766 1801 c-14 -5 -16 -10 -7 -15 16 -10 63 2 56 14 -7 12 -22 12
-49 1z"/>
<path d="M830 1800 c0 -5 7 -10 15 -10 8 0 15 5 15 10 0 6 -7 10 -15 10 -8 0
-15 -4 -15 -10z"/>
<path d="M610 1785 c-10 -13 -9 -15 9 -15 12 0 21 6 21 15 0 8 -4 15 -9 15 -5
0 -14 -7 -21 -15z"/>
<path d="M716 1721 c-40 -8 -57 -38 -33 -55 10 -8 16 -20 15 -27 -4 -18 83
-20 90 -1 2 7 -5 12 -20 12 -12 0 -29 4 -36 9 -10 6 -8 10 10 16 12 4 31 6 41
5 9 -1 17 6 17 14 0 9 -7 16 -15 16 -8 0 -15 5 -15 10 0 11 -9 11 -54 1z"/>
<path d="M607 1684 c-14 -14 -7 -25 13 -22 12 2 21 8 21 13 0 12 -24 18 -34 9z"/>
<path d="M826 1652 c-3 -6 -1 -14 5 -17 15 -10 25 3 12 16 -7 7 -13 7 -17 1z"/>
<path d="M800 1581 c0 -9 24 -21 41 -21 5 0 9 7 9 15 0 9 -9 15 -25 15 -14 0
-25 -4 -25 -9z"/>
<path d="M423 1452 c-42 -6 -24 -22 25 -22 51 0 92 9 92 19 0 6 -78 8 -117 3z"/>
<path d="M730 1410 c0 -5 5 -10 10 -10 6 0 10 5 10 10 0 6 -4 10 -10 10 -5 0
-10 -4 -10 -10z"/>
<path d="M981 1389 c-43 -17 -9 -32 63 -27 63 4 86 11 73 24 -11 11 -111 13
-136 3z"/>
<path d="M835 1370 c3 -5 12 -10 20 -10 8 0 17 5 20 10 4 6 -5 10 -20 10 -15
0 -24 -4 -20 -10z"/>
<path d="M495 1365 c-5 -2 -31 -6 -57 -10 -63 -8 -62 -25 1 -25 62 0 112 17
91 30 -16 10 -19 11 -35 5z"/>
<path d="M587 1364 c-20 -20 47 -33 88 -18 13 5 14 8 3 15 -15 10 -82 12 -91
3z"/>
<path d="M893 1349 c-7 -7 -13 -19 -13 -27 0 -11 11 -12 53 -7 92 13 99 30 15
41 -29 4 -47 1 -55 -7z"/>
<path d="M1020 1344 c0 -17 61 -37 73 -25 6 6 9 13 6 15 -9 9 -79 18 -79 10z"/>
<path d="M820 1330 c0 -6 7 -10 15 -10 8 0 15 2 15 4 0 2 -7 6 -15 10 -8 3
-15 1 -15 -4z"/>
<path d="M585 1300 c3 -5 17 -10 31 -10 14 0 22 4 19 10 -3 6 -17 10 -31 10
-14 0 -22 -4 -19 -10z"/>
<path d="M661 1290 c13 -19 25 -23 87 -25 40 -1 72 2 72 7 0 4 -9 8 -19 8 -11
0 -23 5 -26 10 -4 6 -18 9 -33 8 -15 -1 -43 2 -62 7 -34 7 -34 7 -19 -15z"/>
<path d="M840 1266 c0 -14 36 -26 58 -18 28 9 11 32 -23 32 -23 0 -35 -5 -35
-14z"/>
<path d="M538 1249 c-21 -11 -38 -23 -38 -27 0 -12 175 -36 197 -28 17 7 17 8
-1 22 -11 8 -26 14 -35 14 -8 0 -22 6 -30 14 -28 24 -55 26 -93 5z"/>
<path d="M951 1246 c-8 -10 -9 -16 -1 -21 13 -8 30 3 30 21 0 18 -14 18 -29 0z"/>
<path d="M905 1230 c3 -5 8 -10 11 -10 2 0 4 5 4 10 0 6 -5 10 -11 10 -5 0 -7
-4 -4 -10z"/>
<path d="M997 1233 c-15 -14 -6 -23 23 -23 20 0 30 5 30 15 0 15 -40 21 -53 8z"/>
<path d="M490 1040 c0 -5 6 -10 14 -10 8 0 18 5 21 10 3 6 -3 10 -14 10 -12 0
-21 -4 -21 -10z"/>
<path d="M700 1010 c0 -5 9 -10 21 -10 11 0 17 5 14 10 -3 6 -13 10 -21 10 -8
0 -14 -4 -14 -10z"/>
<path d="M682 948 c5 -15 48 -24 48 -10 0 10 -23 22 -42 22 -5 0 -8 -6 -6 -12z"/>
<path d="M734 861 c-2 -2 -2 -7 1 -11 6 -9 65 0 65 11 0 8 -57 8 -66 0z"/>
<path d="M1011 847 c-15 -19 -4 -27 38 -26 49 1 84 12 89 27 6 18 -112 16
-127 -1z"/>
<path d="M1150 851 c0 -16 60 -35 72 -23 8 8 4 14 -16 22 -33 12 -56 13 -56 1z"/>
<path d="M945 840 c-3 -5 3 -10 15 -10 12 0 18 5 15 10 -3 6 -10 10 -15 10 -5
0 -12 -4 -15 -10z"/>
<path d="M714 819 c-3 -5 5 -13 18 -18 24 -9 42 -5 33 8 -8 13 -44 20 -51 10z"/>
<path d="M780 812 c0 -22 36 -36 96 -37 36 -1 67 2 70 7 3 4 -6 8 -19 8 -13 0
-27 3 -31 7 -4 4 -21 8 -39 9 -18 0 -42 4 -54 8 -13 4 -23 3 -23 -2z"/>
<path d="M970 776 c0 -18 31 -29 54 -20 30 12 18 34 -19 34 -24 0 -35 -5 -35
-14z"/>
<path d="M670 761 c-54 -26 -47 -37 29 -49 83 -14 128 -15 135 -3 6 9 -36 31
-58 31 -8 0 -16 6 -19 14 -8 21 -51 24 -87 7z"/>
<path d="M1096 771 c-4 -7 -5 -15 -2 -18 9 -9 19 4 14 18 -4 11 -6 11 -12 0z"/>
<path d="M1214 710 c-27 -17 -38 -19 -74 -11 -26 6 -53 6 -73 -1 -18 -5 -66
-9 -107 -10 -41 0 -93 -5 -115 -11 -22 -5 -62 -11 -90 -12 -238 -10 -345 -19
-345 -30 0 -15 25 -26 42 -20 7 3 46 1 86 -3 40 -5 75 -5 78 0 7 11 113 1 129
-12 9 -8 14 -7 17 1 3 8 34 11 101 10 80 -2 98 1 103 13 7 18 50 22 56 6 2 -7
25 -5 68 5 36 8 77 17 93 20 15 3 36 14 46 24 11 11 27 21 36 23 9 1 17 8 18
13 4 18 -38 15 -69 -5z m-351 -67 c-7 -2 -19 -2 -25 0 -7 3 -2 5 12 5 14 0 19
-2 13 -5z m85 0 c-10 -2 -28 -2 -40 0 -13 2 -5 4 17 4 22 1 32 -1 23 -4z"/>
<path d="M1300 680 c0 -5 6 -10 14 -10 8 0 18 5 21 10 3 6 -3 10 -14 10 -12 0
-21 -4 -21 -10z"/>
<path d="M1320 540 c0 -5 9 -10 20 -10 11 0 20 5 20 10 0 6 -9 10 -20 10 -11
0 -20 -4 -20 -10z"/>
<path d="M1515 452 c-71 -3 -95 -10 -95 -27 0 -17 33 -28 60 -20 12 4 27 2 34
-4 7 -6 44 -10 82 -9 70 1 114 18 114 44 0 17 -16 19 -25 3 -4 -6 -14 -7 -24
-3 -27 12 -94 19 -146 16z"/>
<path d="M1724 409 c-3 -6 1 -18 10 -27 15 -15 17 -15 32 0 19 19 11 38 -16
38 -10 0 -22 -5 -26 -11z"/>
<path d="M1362 364 c-9 -7 -13 -16 -9 -21 13 -12 219 -21 245 -10 34 15 28 38
-8 31 -16 -4 -37 -3 -47 2 -29 13 -163 11 -181 -2z"/>
<path d="M1668 357 c-36 -13 -7 -24 73 -29 81 -5 119 3 119 25 0 11 -19 14
-86 13 -47 -1 -95 -5 -106 -9z"/>
<path d="M3185 159 c-4 -6 -5 -13 -2 -16 8 -7 47 7 47 18 0 13 -37 11 -45 -2z"/>
<path d="M3355 110 c-3 -6 0 -13 9 -16 23 -9 69 0 74 14 5 15 -74 17 -83 2z"/>
<path d="M3243 103 c-7 -2 -13 -13 -13 -24 0 -24 55 -27 64 -3 11 29 -14 42
-51 27z"/>
</g>
</svg>
